# xmcd
#
# Track frame offsets: 
#        150
#        21516
#        43046
#        56885
#        81101
#        91911
#        106007
#        120596
#        134897
#        154860
#        176864
#        191644
#        206261
#        225224
#        242507
#
# Disc length: 3530 seconds
#
# Revision: 0
# Processed by: cddbd v1.5.2PL0 Copyright (c) Steve Scherf et al.
# Submitted via: ExactAudioCopy v0.95b4
#
DISCID=c60dc80f
DTITLE=Various Artist - Tranunner Joigan
DYEAR=2006
DGENRE=Folk
TTITLE0=Jodi Lakho Thakey Otut
TTITLE1=Beauty-Andhokar Koi Chandrotarey
TTITLE2=Abeed- Pagla Hower Badol Diney
TTITLE3=Rajib-Ami Kemon korey Patro Likhi
TTITLE4=Mehrab-Ainatey Oi Mukh Dekhbo Jokhon
TTITLE5=Nowreen-Chokher Bhitor Shapno
TTITLE6=Nolok-Amar Gaye Joto Dukho Shoi
TTITLE7=Rinku-Amar Ghorey-o Jala
TTITLE8=Nolok-Michey Mayar A Badhon
TTITLE9=Rajib-A Sraboney Noi
TTITLE10=Beauty-Shorbo Shadhon
TTITLE11=Mahdi-Amar Tumi Chara Kew Nai
TTITLE12=Rumi-Ai Shopno Ranga
TTITLE13=Sonia-Dhew A Dhew A
TTITLE14=Rashed- Oi Akasher Tarai Tarai
EXTD=
EXTT0=
EXTT1=
EXTT2=
EXTT3=
EXTT4=
EXTT5=
EXTT6=
EXTT7=
EXTT8=
EXTT9=
EXTT10=
EXTT11=
EXTT12=
EXTT13=
EXTT14=
PLAYORDER=
